HIERARCHY
ROOT Hips
{
  OFFSET 0.000000 0.000000 0.000000
  CHANNELS 6 Xposition Yposition Zposition Xrotation Yrotation Zrotation
  JOINT Spine
  {
    OFFSET -6.423313 -17.000212 -13.334487
    CHANNELS 3 Xrotation Yrotation Zrotation
    JOINT Chest
    {
      OFFSET -6.423313 -17.000212 -13.334487
      CHANNELS 3 Xrotation Yrotation Zrotation
      JOINT Neck
      {
        OFFSET -8.565987 -10.465851 -10.311200
        CHANNELS 3 Xrotation Yrotation Zrotation
        JOINT Head
        {
          OFFSET -6.506337 7.210322 3.531532
          CHANNELS 3 Xrotation Yrotation Zrotation
          End Site
          {
            OFFSET 0.0 5.0 2.0
          }
        }
      }
      JOINT LeftShoulder
      {
        OFFSET 16.191032 -0.222631 -5.090955
        CHANNELS 3 Xrotation Yrotation Zrotation
        JOINT LeftArm
        {
          OFFSET 10.448869 20.915173 -1.238295
          CHANNELS 3 Xrotation Yrotation Zrotation
          JOINT LeftForeArm
          {
            OFFSET 6.900823 23.754111 -0.858906
            CHANNELS 3 Xrotation Yrotation Zrotation
            JOINT LeftHand
            {
              OFFSET 0.929018 7.328410 2.677089
              CHANNELS 3 Xrotation Yrotation Zrotation
              End Site
              {
                OFFSET -3.0 0.0 2.0
              }
            }
          }
        }
      }
      JOINT RightShoulder
      {
        OFFSET -16.191032 0.222631 5.090955
        CHANNELS 3 Xrotation Yrotation Zrotation
        JOINT RightArm
        {
          OFFSET -13.712075 14.695798 8.321647
          CHANNELS 3 Xrotation Yrotation Zrotation
          JOINT RightForeArm
          {
            OFFSET -17.210048 12.326384 -1.738171
            CHANNELS 3 Xrotation Yrotation Zrotation
            JOINT RightHand
            {
              OFFSET 4.902903 0.000000 0.980581
              CHANNELS 3 Xrotation Yrotation Zrotation
              End Site
              {
                OFFSET 3.0 0.0 2.0
              }
            }
          }
        }
      }
    }
  }
  JOINT LeftUpLeg
  {
    OFFSET 12.282434 -0.310965 -0.080493
    CHANNELS 3 Xrotation Yrotation Zrotation
    JOINT LeftLeg
    {
      OFFSET 9.663075 41.630832 -4.887251
      CHANNELS 3 Xrotation Yrotation Zrotation
      JOINT LeftFoot
      {
        OFFSET -5.787469 21.882853 26.702196
        CHANNELS 3 Xrotation Yrotation Zrotation
        JOINT LeftToeBase
        {
          OFFSET 2.886885 -1.000000 8.000000
          CHANNELS 3 Xrotation Yrotation Zrotation
          End Site
          {
            OFFSET 0.0 -1.0 3.0
          }
        }
      }
    }
  }
  JOINT RightUpLeg
  {
    OFFSET -12.282434 0.310965 0.080493
    CHANNELS 3 Xrotation Yrotation Zrotation
    JOINT RightLeg
    {
      OFFSET -1.472860 28.795469 -20.184857
      CHANNELS 3 Xrotation Yrotation Zrotation
      JOINT RightFoot
      {
        OFFSET 0.086358 39.286014 3.546105
        CHANNELS 3 Xrotation Yrotation Zrotation
        JOINT RightToeBase
        {
          OFFSET -4.442337 -1.000000 8.000000
          CHANNELS 3 Xrotation Yrotation Zrotation
          End Site
          {
            OFFSET 0.0 -1.0 3.0
          }
        }
      }
    }
  }
}
MOTION
Frames: 13
Frame Time: 0.033333
0.000000 0.000000 0.000000 0.000000 0.000000 0.000000 0.000000 0.000000 0.000000 0.000000 0.000000 0.000000 -31.889994 -25.487610 7.394211 0.000000 0.000000 0.000000 0.000000 0.000000 0.000000 0.000000 0.000000 0.000000 -39.616774 4.621423 -1.665365 0.000000 0.000000 0.000000 0.000000 0.000000 0.000000 0.000000 0.000000 0.000000 21.632256 32.707507 125.089967 0.000000 0.000000 0.000000 0.000000 0.000000 0.000000 0.000000 0.000000 0.000000 -60.232416 12.435641 17.577818 0.000000 0.000000 0.000000 0.000000 0.000000 0.000000 0.000000 0.000000 0.000000 -38.488491 2.880036 -21.363662 0.000000 0.000000 0.000000
0.000000 0.000000 0.000000 -0.003433 -0.140292 0.022401 4.489454 -1.878862 0.149568 0.024546 -4.876387 0.335878 -46.489710 -33.890167 10.014509 0.000000 0.000000 0.000000 5.193766 -2.586972 0.831258 0.462539 -0.132287 0.065018 -39.751983 4.634759 -1.481831 0.000000 0.000000 0.000000 3.029904 0.638422 3.676368 -2.508656 -3.918670 -1.922046 31.693653 36.722399 127.078404 0.000000 0.000000 0.000000 2.576789 -0.461881 1.437690 5.606718 -0.132029 1.267319 -59.134459 13.385994 16.901658 0.000000 0.000000 0.000000 5.283462 -1.636014 -2.988317 -1.272141 -0.235402 3.011125 -34.807112 4.477111 -19.408555 0.000000 0.000000 0.000000
0.000000 0.000000 0.000000 0.000505 0.114573 -0.317147 2.512112 -1.861127 1.083081 -0.753641 -3.673909 -2.463650 -46.585251 -33.565929 12.489606 0.000000 0.000000 0.000000 6.378388 -3.132052 -4.584920 -2.531385 0.946714 3.468962 -44.084011 5.460921 8.571901 0.000000 0.000000 0.000000 -1.087222 -4.096333 5.928217 -15.259388 -18.399710 6.425162 94.362345 46.711745 153.537920 0.000000 0.000000 0.000000 3.144230 -0.567468 1.809531 4.329699 0.670344 0.401887 -56.225430 15.064764 15.498223 0.000000 0.000000 0.000000 5.134824 -2.311646 -4.026924 -1.161179 -0.352623 4.433929 -32.177397 1.681367 -17.697017 0.000000 0.000000 0.000000
0.000000 0.000000 0.000000 -0.013462 0.691131 -2.460391 -3.304620 -0.566433 2.413460 -1.691615 -3.993697 -5.787759 -54.129447 -37.098461 14.613349 0.000000 0.000000 0.000000 -5.553356 1.951996 -7.132251 -31.305675 11.308171 5.507540 -52.816011 8.290218 18.334725 0.000000 0.000000 0.000000 -8.516403 -11.082992 9.016075 -22.946461 -25.121248 11.671599 107.009792 51.033204 154.439439 0.000000 0.000000 0.000000 1.831727 -0.163085 2.589759 -0.562481 1.071140 -1.006997 -49.967035 15.875328 13.646765 0.000000 0.000000 0.000000 8.426565 -1.998511 -4.031649 3.412054 -0.394935 3.217422 -34.835496 -2.557197 -18.800609 0.000000 0.000000 0.000000
0.000000 0.000000 0.000000 -0.040123 0.908956 -4.359224 -6.475012 0.222382 3.048298 -1.793160 -5.192067 -6.302514 -75.272687 -45.871597 19.315854 0.000000 0.000000 0.000000 -15.629162 5.443362 -11.108044 -45.978511 19.401931 10.100793 -56.654199 12.122753 34.851793 0.000000 0.000000 0.000000 -15.113599 -17.380293 15.865261 -26.012108 -27.967991 12.933097 99.402463 50.814334 151.101226 0.000000 0.000000 0.000000 -0.556129 0.483146 2.870430 -5.222341 1.716722 -2.709957 -49.410972 15.239692 13.695187 0.000000 0.000000 0.000000 11.340802 -1.390885 -3.435344 15.377784 0.758470 -3.476053 -40.740519 -5.839893 -21.535809 0.000000 0.000000 0.000000
0.000000 0.000000 0.000000 -0.066509 1.264969 -5.601403 -18.720870 4.417837 3.545450 -2.502409 -8.358569 -9.643570 -99.692916 -50.590820 32.083291 0.000000 0.000000 0.000000 -25.007565 8.489426 -13.464618 -63.015671 29.238423 12.122692 -59.359375 17.855792 55.268032 0.000000 0.000000 0.000000 -15.818723 -19.025312 21.368100 -32.384045 -31.797723 18.126198 129.266284 57.309365 159.101885 0.000000 0.000000 0.000000 -0.479647 0.560215 3.654465 -10.499070 2.732344 -5.129193 -45.823802 18.062360 12.066266 0.000000 0.000000 0.000000 11.912013 -0.016218 -1.054011 18.946655 1.962411 -7.670939 -43.163175 -5.074771 -22.909179 0.000000 0.000000 0.000000
0.000000 0.000000 0.000000 -0.119332 2.177352 -6.826084 -23.661253 6.675078 2.330713 -2.790390 -8.410119 -10.819277 -105.291127 -49.763434 37.521746 0.000000 0.000000 0.000000 -32.711260 9.282592 -19.293704 -76.776360 31.324450 5.309238 -64.707862 21.805829 56.398817 0.000000 0.000000 0.000000 -24.149060 -23.539996 24.304300 -32.742990 -30.117518 21.281518 128.797923 52.034449 162.605000 0.000000 0.000000 0.000000 -0.561462 0.948243 6.573240 -15.416150 4.619708 -8.643642 -43.775573 20.507717 11.008423 0.000000 0.000000 0.000000 11.855132 0.457827 -0.196670 19.005498 2.813970 -10.891601 -42.376284 -8.298410 -22.025193 0.000000 0.000000 0.000000
0.000000 0.000000 0.000000 -0.219370 4.963719 -6.916175 -23.984766 6.880123 2.113452 -2.856661 -4.650431 -10.054438 -97.601574 -52.017519 27.744048 0.000000 0.000000 0.000000 -34.037968 6.666657 -27.286919 -88.349126 38.105822 5.267261 -51.358062 17.093924 81.394365 0.000000 0.000000 0.000000 -8.776086 -15.185556 20.944509 -24.889087 -22.407812 20.636607 118.329690 47.028468 162.521194 0.000000 0.000000 0.000000 5.734452 -0.743689 8.858388 -17.772074 6.691690 -11.739662 -42.400665 17.912226 11.350218 0.000000 0.000000 0.000000 15.275247 0.680247 -0.073736 16.357383 2.772142 -11.811444 -41.145110 -8.714246 -21.347282 0.000000 0.000000 0.000000
0.000000 0.000000 0.000000 -0.551353 11.850256 -7.726146 -23.893160 7.315024 1.130482 -2.747392 -3.329322 -9.370815 -105.107291 -51.342655 34.682155 0.000000 0.000000 0.000000 -33.993943 4.407851 -33.313437 -84.603474 37.457705 6.959964 -58.623882 22.164359 73.452458 0.000000 0.000000 0.000000 -14.412802 -19.381838 26.102596 -26.265283 -21.745257 24.583350 135.666272 43.859381 169.740500 0.000000 0.000000 0.000000 7.794881 -1.177878 13.266808 -6.432760 15.558600 -15.266441 -57.664414 24.026194 12.438744 0.000000 0.000000 0.000000 16.121259 1.152443 0.781647 16.073867 2.935023 -12.626883 -45.078368 -12.477863 -22.677138 0.000000 0.000000 0.000000
0.000000 0.000000 0.000000 -1.172644 20.339160 -9.106868 -28.655462 9.360326 -0.405674 -4.016552 3.644150 -11.840235 -102.358169 -50.385768 34.418912 0.000000 0.000000 0.000000 -35.408076 3.560083 -36.258661 -70.260521 11.204750 -16.122134 -71.926209 5.579629 -9.464155 0.000000 0.000000 0.000000 -12.049032 -18.121284 25.480819 -23.279090 -19.043356 24.227678 110.267355 36.571084 168.883827 0.000000 0.000000 0.000000 10.625747 -2.087759 17.834530 4.537125 27.680984 -19.189761 -76.136195 31.825492 10.904735 0.000000 0.000000 0.000000 12.072882 2.769712 3.964461 12.947337 3.156307 -15.389209 -44.288470 -11.574067 -22.452107 0.000000 0.000000 0.000000
0.000000 0.000000 0.000000 -1.455243 22.222008 -9.978314 -27.244737 8.962651 -0.381674 -3.650567 2.675792 -10.979905 -105.925967 -47.683211 41.458209 0.000000 0.000000 0.000000 -22.063201 1.955456 -34.085834 -46.149432 0.642538 -28.604483 -65.255144 3.175641 -19.146069 0.000000 0.000000 0.000000 -19.154940 -21.325762 24.827491 -25.971428 -22.362842 22.825614 112.992525 42.595602 164.477211 0.000000 0.000000 0.000000 10.555585 -2.013307 19.934598 5.084796 30.885352 -21.133245 -75.195979 29.440880 12.356657 0.000000 0.000000 0.000000 10.491063 4.504436 7.005435 12.427076 3.696309 -18.370843 -48.556245 -17.604493 -23.289003 0.000000 0.000000 0.000000
0.000000 0.000000 0.000000 -1.430817 22.240486 -9.852520 -25.531257 8.364649 -0.111566 -3.486665 -0.605465 -11.215437 -105.759499 -48.189564 40.501350 0.000000 0.000000 0.000000 -15.184884 1.308443 -31.158790 -22.370320 -0.212770 -28.510775 -48.932562 3.483858 -26.712149 0.000000 0.000000 0.000000 -16.326947 -19.803334 23.847009 -24.134556 -22.054249 19.814243 97.021480 43.321637 158.549512 0.000000 0.000000 0.000000 9.608912 -1.624488 19.603569 1.798732 28.351135 -21.182571 -75.627215 31.184402 11.277137 0.000000 0.000000 0.000000 10.403637 6.091131 9.778933 15.669783 4.837043 -20.902049 -50.432322 -19.121315 -23.777512 0.000000 0.000000 0.000000
0.000000 0.000000 0.000000 -1.309428 22.393811 -9.212974 -18.328335 5.161085 1.925008 -1.960575 -0.377227 -6.277177 -98.619774 -49.651194 33.026053 0.000000 0.000000 0.000000 -4.670384 0.217751 -20.747414 -21.167690 -0.026081 -27.477958 -47.334063 3.562805 -28.421675 0.000000 0.000000 0.000000 -13.741591 -15.526925 11.901705 -21.264436 -23.025468 11.883548 88.038929 49.186980 147.281433 0.000000 0.000000 0.000000 -6.614795 4.844066 17.574124 -17.339919 23.374567 -28.558373 -60.142832 -5.319448 23.851997 0.000000 0.000000 0.000000 13.977814 7.672411 13.204293 18.595231 6.080536 -23.450008 -51.856006 -21.723726 -23.751917 0.000000 0.000000 0.000000
